<svg width="101" height="170" viewBox="0 0 101 170" fill="none" xmlns="http://www.w3.org/2000/svg">
<g id="Crown">
<g id="Group">
<path id="Vector" d="M15.4881 155.26C-4.00167 135.77 -4.00167 104.061 15.4881 84.5716C34.9778 65.0819 66.6865 65.0819 86.1762 84.5716C105.666 104.061 105.666 135.77 86.1762 155.26C66.6865 174.75 34.9778 174.75 15.4881 155.26ZM83.8206 86.9273C65.6295 68.7362 36.0347 68.7362 17.8484 86.9273C-0.34262 105.118 -0.34262 134.713 17.8484 152.899C36.0395 171.09 65.6343 171.09 83.8206 152.899C102.012 134.708 102.012 105.114 83.8206 86.9273Z" fill="white"/>
<g id="Group_2">
<path id="Vector_2" d="M84.3638 109.313C84.1884 109.138 84.0462 108.915 83.9657 108.668C82.2357 103.55 79.4108 99.0136 75.5716 95.1744C71.7372 91.34 67.1965 88.5151 62.0776 86.7804C61.3998 86.5481 60.9448 85.9178 60.9448 85.2021V73.0542C60.9448 72.5423 61.1818 72.0588 61.5847 71.7413C61.9923 71.4237 62.5184 71.3147 63.0113 71.4379C71.7609 73.6277 79.771 78.1683 86.1696 84.5717C92.5682 90.975 97.1089 98.9804 99.2987 107.73C99.4219 108.228 99.3081 108.754 98.9953 109.161C98.6777 109.569 98.1943 109.801 97.6824 109.801H85.5345C85.0795 109.801 84.6624 109.616 84.3543 109.308L84.3638 109.313ZM77.9272 92.8188C81.8422 96.7338 84.7951 101.322 86.7194 106.469H95.5069C93.2982 99.1131 89.2836 92.3922 83.8187 86.9273C78.3538 81.4624 71.6329 77.4479 64.2816 75.2439V84.0314C69.4289 85.9509 74.017 88.9038 77.932 92.8235L77.9272 92.8188Z" fill="white"/>
<path id="Vector_3" d="M15.4867 155.26C9.0881 148.861 4.5427 140.851 2.35295 132.101C2.22971 131.604 2.34347 131.078 2.6563 130.675C2.97386 130.267 3.45729 130.035 3.96918 130.035H16.1171C16.8328 130.035 17.4679 130.49 17.6954 131.168C19.4254 136.287 22.2503 140.823 26.0894 144.662C29.9239 148.496 34.4646 151.321 39.5835 153.056C40.2612 153.283 40.7162 153.918 40.7162 154.634V166.782C40.7162 167.294 40.4792 167.777 40.0764 168.095C39.6687 168.412 39.1426 168.521 38.645 168.398C29.8954 166.208 21.8901 161.668 15.4867 155.269V155.26ZM6.15421 133.362C8.36292 140.718 12.3774 147.439 17.8423 152.904C23.3072 158.369 30.0282 162.384 37.3842 164.592V155.805C32.2369 153.885 27.6488 150.932 23.7338 147.017C19.8188 143.102 16.866 138.514 14.9416 133.367H6.15421V133.362Z" fill="white"/>
<path id="Vector_4" d="M61.433 167.953C61.1202 167.64 60.9448 167.218 60.9448 166.773V154.625C60.9448 153.909 61.3998 153.274 62.0776 153.046C67.1965 151.316 71.7324 148.492 75.5716 144.652C79.4108 140.813 82.2309 136.277 83.9656 131.158C84.1931 130.481 84.8283 130.026 85.544 130.026H97.6919C98.2038 130.026 98.6872 130.263 99.0048 130.665C99.3223 131.068 99.4314 131.599 99.3081 132.092C97.1136 140.842 92.573 148.847 86.1743 155.25C79.7757 161.654 71.7656 166.194 63.0161 168.384C62.5184 168.507 61.9923 168.394 61.5894 168.081C61.5373 168.033 61.4852 167.991 61.4378 167.943L61.433 167.953ZM64.2769 155.8V164.588C71.6329 162.379 78.3538 158.364 83.8187 152.9C89.2836 147.435 93.2934 140.714 95.5069 133.358H86.7194C84.7998 138.505 81.847 143.088 77.9272 147.008C74.0122 150.923 69.4242 153.881 64.2769 155.8Z" fill="white"/>
<path id="Vector_5" d="M2.78974 109.313C2.74234 109.266 2.69496 109.213 2.65704 109.161C2.33948 108.758 2.23046 108.228 2.35369 107.73C4.54344 98.9804 9.0841 90.9703 15.4875 84.5717C21.8908 78.173 29.8962 73.6277 38.6457 71.4379C39.1434 71.3147 39.6695 71.4284 40.0724 71.7412C40.4752 72.0588 40.7123 72.5423 40.7123 73.0542V85.2021C40.7123 85.9178 40.2572 86.5529 39.5795 86.7804C34.4606 88.5104 29.9246 91.3352 26.0854 95.1744C22.251 99.0088 19.4262 103.549 17.6914 108.668C17.4639 109.346 16.8288 109.801 16.1131 109.801H3.96521C3.51967 109.801 3.09307 109.626 2.78499 109.318L2.78974 109.313ZM37.3802 75.2439C30.0242 77.4526 23.3032 81.4672 17.8383 86.9321C12.3734 92.3969 8.36366 99.1179 6.15021 106.474H14.9376C16.8572 101.327 19.8101 96.7433 23.7298 92.8235C27.6448 88.9085 32.2329 85.9557 37.3802 84.0313V75.2439Z" fill="white"/>
</g>
<path id="Vector_6" d="M77.9313 92.8188C62.9917 77.8792 38.677 77.8744 23.7374 92.8188C8.79305 107.763 8.79779 132.073 23.7374 147.013C38.677 161.952 62.987 161.957 77.9313 147.013C92.8756 132.068 92.8709 107.758 77.9313 92.8188Z" fill="white"/>
<g id="Group_3">
<path id="Vector_7" d="M64.6503 133.593L37.1226 133.776C35.963 133.784 35.0292 134.73 35.0369 135.889L35.0434 136.871C35.0511 138.03 35.9974 138.964 37.157 138.956L64.6846 138.774C65.8442 138.766 66.7781 137.82 66.7704 136.66L66.7639 135.679C66.7562 134.519 65.8099 133.586 64.6503 133.593Z" fill="#191D0A"/>
<path id="Vector_8" d="M40.8731 116.977C40.5745 116.977 40.2712 116.911 39.9963 116.778L37.8492 115.74C36.9154 115.285 36.4888 114.181 36.8775 113.219L37.8634 110.764C38.1667 110.015 38.8824 109.526 39.6882 109.522C40.0342 109.522 40.3754 109.607 40.6788 109.782L43.2382 111.242C43.7169 111.512 44.0629 111.982 44.1862 112.522C44.3094 113.062 44.2004 113.631 43.8875 114.086L42.4846 116.119C42.1197 116.65 41.513 116.973 40.8684 116.973L40.8731 116.977Z" fill="#191D0A"/>
<path id="Vector_9" d="M60.6919 116.845C60.0472 116.845 59.4359 116.537 59.0662 116.01L57.6774 114.053C57.3551 113.603 57.2414 113.034 57.3551 112.494C57.4689 111.953 57.8101 111.479 58.2888 111.2L60.9288 109.65C61.2274 109.474 61.5687 109.38 61.9147 109.375C62.7205 109.37 63.4457 109.849 63.7585 110.593L64.7538 112.977C65.152 113.934 64.7396 115.048 63.8154 115.513L61.5687 116.636C61.2986 116.769 60.9952 116.845 60.6966 116.845H60.6919Z" fill="#191D0A"/>
<path id="Vector_10" d="M38.7105 131.936C37.5019 131.945 36.4165 131.187 36.0042 130.049L31.4114 117.408C31.1175 117.551 30.8047 117.66 30.4871 117.74C30.1127 117.835 29.7335 117.882 29.3496 117.882C29.1268 117.882 28.9088 117.873 28.6955 117.845C26.3019 117.541 24.4867 115.489 24.4724 113.072C24.4535 110.398 26.6148 108.209 29.288 108.19C31.9612 108.171 34.1509 110.332 34.1651 113.005C34.1651 113.621 34.0608 114.214 33.8428 114.768C33.7243 115.072 33.5774 115.361 33.4068 115.636L42.1421 119.864L48.8251 110.18C48.5455 110.062 48.2753 109.915 48.0193 109.74C47.5359 109.413 47.114 109.005 46.7728 108.526C46.1945 107.711 45.8817 106.749 45.877 105.753C45.858 103.08 48.0193 100.891 50.6925 100.872C50.811 100.872 50.9343 100.872 51.0528 100.881C53.4463 101.042 55.3801 102.962 55.5555 105.355C55.6361 106.488 55.3375 107.574 54.6929 108.498C54.3516 108.981 53.9345 109.394 53.4558 109.721C53.2046 109.896 52.9344 110.043 52.6548 110.161L59.4563 119.745L68.0494 115.446C67.8882 115.138 67.7603 114.816 67.6655 114.479C67.5518 114.072 67.4901 113.645 67.4901 113.214C67.4901 113.019 67.4996 112.825 67.5185 112.636C67.7934 110.199 69.8505 108.351 72.3009 108.337C74.9741 108.318 77.1639 110.479 77.1781 113.152C77.1971 115.702 75.2158 117.845 72.6706 118.02L72.3673 118.029C71.8743 118.029 71.3909 117.963 70.9217 117.821C70.6183 117.726 70.3244 117.608 70.0495 117.456L65.7364 129.85C65.343 130.992 64.2623 131.76 63.0537 131.77L38.7105 131.931V131.936Z" fill="#191D0A"/>
</g>
</g>
<g id="Group_4">
<path id="Vector_11" d="M100.411 -0.959878V118.635C100.411 119.624 99.6097 120.415 98.6313 120.415C97.6529 120.415 96.8514 119.614 96.8514 118.635V-0.959878C96.8514 -1.9487 97.6529 -2.73975 98.6313 -2.73975C99.6097 -2.73975 100.411 -1.93829 100.411 -0.959878Z" fill="white"/>
</g>
<g id="Group_5">
<path id="Vector_12" d="M4.86821 -1.22013V118.375C4.86821 119.364 4.06678 120.155 3.08837 120.155C2.10996 120.155 1.30847 119.354 1.30847 118.375V-1.22013C1.30847 -2.20895 2.10996 -3 3.08837 -3C4.06678 -3 4.86821 -2.19854 4.86821 -1.22013Z" fill="white"/>
</g>
</g>
</svg>
