<svg width="100" height="101" viewBox="0 0 100 101" fill="none" xmlns="http://www.w3.org/2000/svg">
<g id="Crown">
<path id="Vector" d="M14.6172 85.6719C-4.87255 66.1822 -4.87255 34.4735 14.6172 14.9837C34.1069 -4.50598 65.8156 -4.50598 85.3053 14.9837C104.795 34.4735 104.795 66.1822 85.3053 85.6719C65.8156 105.162 34.1069 105.162 14.6172 85.6719ZM82.9497 17.3394C64.7586 -0.851653 35.1638 -0.851653 16.9775 17.3394C-1.2135 35.5304 -1.2135 65.1253 16.9775 83.3116C35.1686 101.503 64.7634 101.503 82.9497 83.3116C101.141 65.1205 101.141 35.5257 82.9497 17.3394Z" fill="white"/>
<g id="Group">
<path id="Vector_2" d="M83.4892 39.7251C83.3138 39.5498 83.1716 39.327 83.091 39.0805C81.361 33.9616 78.5361 29.4257 74.697 25.5865C70.8625 21.7521 66.3219 18.9272 61.203 17.1925C60.5252 16.9603 60.0702 16.3299 60.0702 15.6142V3.46628C60.0702 2.95439 60.3072 2.47093 60.71 2.15337C61.1177 1.83581 61.6438 1.7268 62.1367 1.85003C70.8862 4.03978 78.8963 8.58043 85.295 14.9838C91.6936 21.3871 96.2343 29.3925 98.424 38.1421C98.5472 38.6397 98.4335 39.1658 98.1207 39.5734C97.8031 39.9811 97.3196 40.2133 96.8078 40.2133H84.6599C84.2048 40.2133 83.7878 40.0285 83.4797 39.7204L83.4892 39.7251ZM77.0526 23.2309C80.9676 27.1459 83.9205 31.734 85.8448 36.8813H94.6322C92.4235 29.5252 88.409 22.8043 82.9441 17.3394C77.4792 11.8745 70.7583 7.85999 63.407 5.65603V14.4435C68.5543 16.3631 73.1423 19.3159 77.0573 23.2356L77.0526 23.2309Z" fill="white"/>
<path id="Vector_3" d="M14.616 85.6718C8.21737 79.2732 3.67197 71.2631 1.48222 62.5136C1.35899 62.0159 1.47275 61.4898 1.78557 61.0869C2.10313 60.6793 2.58656 60.447 3.09845 60.447H15.2464C15.9621 60.447 16.5972 60.902 16.8247 61.5798C18.5547 66.6987 21.3795 71.2346 25.2187 75.0738C29.0531 78.9082 33.5938 81.7331 38.7127 83.4678C39.3905 83.6953 39.8455 84.3305 39.8455 85.0462V97.1941C39.8455 97.706 39.6085 98.1894 39.2056 98.507C38.798 98.8245 38.2719 98.9335 37.7742 98.8103C29.0247 96.6206 21.0194 92.0799 14.616 85.6813V85.6718ZM5.28348 63.7743C7.49219 71.1304 11.5067 77.8513 16.9716 83.3162C22.4365 88.7811 29.1575 92.7956 36.5135 95.0043V86.2169C31.3662 84.2973 26.7781 81.3444 22.8631 77.4294C18.9481 73.5144 15.9952 68.9264 14.0709 63.7791H5.28348V63.7743Z" fill="white"/>
<path id="Vector_4" d="M60.5662 98.365C60.2534 98.0521 60.078 97.6303 60.078 97.1848V85.0369C60.078 84.3212 60.533 83.6861 61.2108 83.4586C66.3297 81.7286 70.8656 78.9037 74.7048 75.0645C78.5439 71.2253 81.3641 66.6894 83.0988 61.5705C83.3263 60.8927 83.9615 60.4377 84.6772 60.4377H96.8251C97.3369 60.4377 97.8204 60.6747 98.138 61.0776C98.4555 61.4805 98.5645 62.0113 98.4413 62.5043C96.2468 71.2538 91.7061 79.2592 85.3075 85.6625C78.9089 92.0659 70.8988 96.6065 62.1493 98.7963C61.6516 98.9195 61.1255 98.8058 60.7226 98.4929C60.6705 98.4455 60.6183 98.4029 60.571 98.3555L60.5662 98.365ZM63.41 86.2123V94.9998C70.7661 92.7911 77.487 88.7765 82.9519 83.3116C88.4168 77.8467 92.4266 71.1258 94.64 63.7698H85.8526C83.933 68.9171 80.9801 73.5004 77.0604 77.4201C73.1454 81.3351 68.5574 84.2927 63.41 86.2123Z" fill="white"/>
<path id="Vector_5" d="M1.91901 39.7251C1.87161 39.6777 1.82423 39.6256 1.78631 39.5734C1.46875 39.1706 1.35973 38.6397 1.48296 38.142C3.67271 29.3925 8.21337 21.3824 14.6167 14.9838C21.0201 8.58516 29.0254 4.03977 37.775 1.85002C38.2726 1.72679 38.7988 1.84053 39.2016 2.15335C39.6045 2.47092 39.8415 2.95438 39.8415 3.46627V15.6142C39.8415 16.3299 39.3865 16.965 38.7087 17.1925C33.5898 18.9225 29.0539 21.7474 25.2147 25.5865C21.3803 29.421 18.5554 33.9616 16.8207 39.0805C16.5932 39.7583 15.9581 40.2133 15.2424 40.2133H3.09448C2.64895 40.2133 2.22235 40.0379 1.91427 39.7299L1.91901 39.7251ZM36.5095 5.65601C29.1535 7.86472 22.4325 11.8793 16.9676 17.3442C11.5027 22.8091 7.49293 29.53 5.27948 36.886H14.0669C15.9865 31.7387 18.9393 27.1554 22.8591 23.2356C26.7741 19.3206 31.3622 16.3678 36.5095 14.4435V5.65601Z" fill="white"/>
</g>
<path id="Vector_6" d="M77.0565 23.2309C62.1169 8.29129 37.8022 8.28655 22.8626 23.2309C7.91827 38.1752 7.92301 62.4852 22.8626 77.4248C37.8022 92.3644 62.1122 92.3692 77.0565 77.4248C92.0009 62.4805 91.9961 38.1705 77.0565 23.2309Z" fill="white"/>
<g id="Group_2">
<path id="Vector_7" d="M63.7833 64.0054L36.2557 64.188C35.096 64.1957 34.1622 65.1419 34.1699 66.3015L34.1764 67.2827C34.1841 68.4423 35.1304 69.3761 36.29 69.3684L63.8177 69.1858C64.9773 69.1781 65.9111 68.2318 65.9034 67.0722L65.8969 66.0911C65.8892 64.9315 64.9429 63.9977 63.7833 64.0054Z" fill="#191D0A"/>
<path id="Vector_8" d="M40.0061 47.3892C39.7075 47.3892 39.4042 47.3228 39.1293 47.1901L36.9822 46.1521C36.0485 45.6971 35.6219 44.5927 36.0105 43.6306L36.9964 41.1754C37.2998 40.4265 38.0154 39.9383 38.8212 39.9336C39.1672 39.9336 39.5084 40.0189 39.8118 40.1943L42.3712 41.6541C42.8499 41.9243 43.1959 42.3935 43.3192 42.9338C43.4424 43.4742 43.3334 44.0429 43.0206 44.4979L41.6176 46.5313C41.2527 47.0621 40.646 47.3844 40.0014 47.3844L40.0061 47.3892Z" fill="#191D0A"/>
<path id="Vector_9" d="M59.821 47.2564C59.1764 47.2564 58.565 46.9484 58.1953 46.4223L56.8065 44.4648C56.4842 44.0145 56.3705 43.4457 56.4842 42.9054C56.598 42.3651 56.9392 41.8911 57.418 41.6114L60.058 40.0616C60.3566 39.8862 60.6979 39.7914 61.0439 39.7867C61.8496 39.7819 62.5748 40.2606 62.8876 41.0048L63.8829 43.3888C64.2811 44.3463 63.8687 45.4601 62.9445 45.9246L60.6979 47.0479C60.4277 47.1806 60.1243 47.2564 59.8257 47.2564H59.821Z" fill="#191D0A"/>
<path id="Vector_10" d="M37.8435 62.3478C36.6349 62.3573 35.5495 61.5989 35.1372 60.4614L30.5444 47.8206C30.2506 47.9628 29.9377 48.0718 29.6201 48.1523C29.2457 48.2471 28.8665 48.2945 28.4826 48.2945C28.2598 48.2945 28.0418 48.2851 27.8285 48.2566C25.435 47.9533 23.6197 45.901 23.6055 43.4837C23.5865 40.8105 25.7478 38.6208 28.421 38.6018C31.0942 38.5829 33.284 40.7442 33.2982 43.4174C33.2982 44.0335 33.1939 44.626 32.9758 45.1805C32.8574 45.4839 32.7105 45.773 32.5398 46.0479L41.2751 50.2757L47.9581 40.5925C47.6785 40.474 47.4083 40.3271 47.1524 40.1517C46.6689 39.8247 46.2471 39.417 45.9058 38.9383C45.3276 38.1231 45.0147 37.1609 45.01 36.1656C44.991 33.4924 47.1524 31.3027 49.8256 31.2837C49.9441 31.2837 50.0673 31.2837 50.1858 31.2932C52.5793 31.4543 54.5132 33.3739 54.6885 35.7675C54.7691 36.9003 54.4705 37.9857 53.8259 38.9099C53.4847 39.3933 53.0675 39.8057 52.5888 40.1327C52.3376 40.3081 52.0675 40.455 51.7878 40.5735L58.5893 50.1573L67.1824 45.8583C67.0213 45.5502 66.8933 45.2279 66.7985 44.8914C66.6848 44.4838 66.6232 44.0572 66.6232 43.6259C66.6232 43.4316 66.6326 43.2373 66.6516 43.0477C66.9265 40.6115 68.9835 38.763 71.4339 38.7487C74.1071 38.7298 76.2969 40.8911 76.3111 43.5643C76.3301 46.1143 74.3489 48.2566 71.8036 48.432L71.5003 48.4415C71.0074 48.4415 70.5239 48.3751 70.0547 48.2329C69.7514 48.1381 69.4575 48.0196 69.1826 47.868L64.8694 60.2623C64.476 61.4046 63.3954 62.1724 62.1867 62.1819L37.8435 62.3431V62.3478Z" fill="#191D0A"/>
</g>
</g>
</svg>
