<svg width="100" height="100" viewBox="0 0 100 100" fill="none" xmlns="http://www.w3.org/2000/svg">
<g id="M">
<path id="Vector" d="M50.3966 99.8407C23.0739 99.8407 0.85144 77.6078 0.85144 50.2956C0.85144 22.9833 23.0843 0.750488 50.3966 0.750488C77.7088 0.750488 99.9417 22.9833 99.9417 50.2956C99.9417 77.6078 77.7088 99.8407 50.3966 99.8407ZM50.3966 4.05001C24.8954 4.05001 4.15096 24.7944 4.15096 50.2956C4.15096 75.7967 24.8954 96.5411 50.3966 96.5411C75.8977 96.5411 96.6422 75.7967 96.6422 50.2956C96.6422 24.7944 75.8977 4.05001 50.3966 4.05001Z" fill="#11F8A5"/>
<g id="Group">
<path id="Vector_2" d="M82.7173 14.9488L67.379 30.2871L70.3966 33.3047L85.7349 17.9664L82.7173 14.9488Z" fill="#11F8A5"/>
<path id="Vector_3" d="M29.9241 67.7406L14.5859 83.0789L17.6035 86.0964L32.9417 70.7582L29.9241 67.7406Z" fill="#11F8A5"/>
<path id="Vector_4" d="M70.8615 67.7556L67.8438 70.7732L83.1821 86.1114L86.1997 83.0938L70.8615 67.7556Z" fill="#11F8A5"/>
<path id="Vector_5" d="M17.5997 14.487L14.5821 17.5046L29.913 32.8356L32.9306 29.818L17.5997 14.487Z" fill="#11F8A5"/>
</g>
<g id="Group_2">
<path id="Vector_6" d="M62.4807 51.6277C63.4799 50.6285 63.4799 49.0151 62.4807 48.0263L60.3573 45.9134C59.358 44.9142 57.7448 44.9142 56.7559 45.9134L55.6109 47.0583L54.2891 45.7364C53.2899 44.7372 51.6765 44.7372 50.6877 45.7364L49.5428 46.8918L48.2208 45.5595C47.2216 44.5603 45.6082 44.5603 44.6194 45.5595L37.5936 52.5853C37.5416 52.6374 37.5416 52.7206 37.5936 52.7831C38.5304 53.7199 40.0605 53.7199 41.0077 52.7831L45.5354 48.2553C46.0246 47.7661 46.8157 47.7661 47.3049 48.2553L47.638 48.5884C47.7004 48.6508 47.7004 48.7445 47.638 48.807L43.8596 52.5853C43.8076 52.6374 43.8076 52.7206 43.8596 52.7831C44.7964 53.7199 46.3265 53.7199 47.2737 52.7831L51.6141 48.4427C52.1033 47.9535 52.8943 47.9535 53.3835 48.4427L53.7166 48.7758C53.7687 48.8278 53.7687 48.9111 53.7166 48.9735L50.0736 52.6166C50.0216 52.6686 50.0216 52.7519 50.0736 52.8143C51.0104 53.7511 52.5404 53.7511 53.4876 52.8143L57.6823 48.6196C58.1715 48.1304 58.9625 48.1304 59.4517 48.6196L60.1699 49.3378C60.451 49.6189 60.451 50.0872 60.1699 50.3683L60.0555 50.4827C59.7744 50.7638 59.306 50.7638 59.025 50.4827L58.0986 49.5564C58.0466 49.5044 57.9633 49.5044 57.9009 49.5564L56.2979 51.1593C56.2459 51.2114 56.2459 51.2946 56.2979 51.3571L57.7448 52.8039C58.744 53.8031 60.3573 53.8031 61.3461 52.8039L62.4911 51.6589L62.4807 51.6277Z" fill="#11F8A5"/>
<path id="Vector_7" d="M50.3976 12.304C29.4138 12.304 12.4061 29.3117 12.4061 50.2955C12.4061 71.2793 29.4138 88.287 50.3976 88.287C71.3815 88.287 88.3892 71.2793 88.3892 50.2955C88.3892 29.3117 71.3815 12.304 50.3976 12.304ZM51.9485 24.0345C58.048 24.3884 63.5854 26.824 67.8737 30.6335L62.3884 36.1189C59.526 33.6937 55.9142 32.122 51.9485 31.789V24.0345ZM48.8571 24.0345V31.789C44.8914 32.1116 41.2797 33.6937 38.4173 36.1189L32.9319 30.6335C37.2203 26.824 42.7577 24.3884 48.8571 24.0345ZM30.7461 32.8194L36.2314 38.3048C33.8062 41.1671 32.2346 44.7789 31.9015 48.7446H24.147C24.5009 42.6451 26.9366 37.1078 30.7461 32.8194ZM24.147 51.836H31.9015C32.2241 55.8017 33.8062 59.4134 36.2314 62.2758L30.7461 67.7612C26.9366 63.4728 24.5009 57.9355 24.147 51.836ZM48.8571 76.5461C42.7577 76.1922 37.2203 73.7565 32.9319 69.947L38.4173 64.4616C41.2797 66.8868 44.8914 68.4586 48.8571 68.7916V76.5461ZM34.4308 50.2851C34.4308 41.4689 41.5815 34.3182 50.3976 34.3182C59.2138 34.3182 66.3645 41.4689 66.3645 50.2851C66.3645 59.1012 59.2138 66.2519 50.3976 66.2519C41.5815 66.2519 34.4308 59.1012 34.4308 50.2851ZM51.9485 76.5461V68.7916C55.9142 68.469 59.526 66.8868 62.3884 64.4616L67.8737 69.947C63.5854 73.7565 58.048 76.1922 51.9485 76.5461ZM70.0595 67.7612L64.5742 62.2758C66.9994 59.4134 68.5711 55.8017 68.9042 51.836H76.6586C76.3047 57.9355 73.8691 63.4728 70.0595 67.7612ZM68.9042 48.7446C68.5815 44.7789 66.9994 41.1671 64.5742 38.3048L70.0595 32.8194C73.8691 37.1078 76.3047 42.6451 76.6586 48.7446H68.9042Z" fill="#11F8A5"/>
</g>
</g>
</svg>
