<svg width="100" height="100" viewBox="0 0 100 100" fill="none" xmlns="http://www.w3.org/2000/svg">
<g id="Shield">
<path id="Vector" d="M49.9825 100C37.2839 100 24.5958 95.1705 14.9262 85.5009C-4.40264 66.1721 -4.40264 34.7276 14.9262 15.3987C24.294 6.03095 36.7427 0.878662 49.9825 0.878662C63.2223 0.878662 75.671 6.03095 85.0387 15.3987C104.368 34.7276 104.368 66.1721 85.0387 85.5009C75.3795 95.1601 62.681 100 49.9825 100ZM17.5284 82.8988C35.4208 100.791 64.5337 100.791 82.4262 82.8988C100.319 65.0063 100.319 35.8933 82.4262 18.0009C73.7558 9.33049 62.2334 4.56336 49.9721 4.56336C37.7107 4.56336 26.1883 9.3409 17.5179 18.0009C-0.374513 35.8933 -0.374513 65.0063 17.5179 82.8988H17.5284Z" fill="#EBF29D"/>
<g id="Group">
<path id="Vector_2" d="M49.3268 68.9929C49.5037 69.4196 49.9201 69.6693 50.3572 69.6693C50.503 69.6693 50.6487 69.6382 50.7945 69.5861C54.2918 68.1185 57.4768 65.8493 59.9957 63.0182C60.4016 62.5602 60.36 61.8525 59.902 61.4466C59.444 61.0407 58.7362 61.0823 58.3303 61.5403C56.03 64.132 53.126 66.2033 49.9305 67.5356C49.3685 67.775 49.0978 68.4308 49.3372 68.9929H49.3268Z" fill="#EBF29D"/>
<path id="Vector_3" d="M68.8727 33.3122L50.387 25.9221C50.1164 25.818 49.8249 25.818 49.5543 25.9221L31.0685 33.3122C30.6418 33.4788 30.3711 33.8847 30.3711 34.3427V47.5824C30.3919 59.8022 38.1152 70.8457 49.5855 75.0508C49.7104 75.0925 49.8353 75.1133 49.9706 75.1133C50.1059 75.1133 50.2308 75.0925 50.3557 75.0508C61.826 70.8353 69.5493 59.8022 69.5701 47.5824V34.3427C69.5701 33.8847 69.2995 33.4788 68.8727 33.3122ZM67.3426 47.5824C67.3218 58.6989 60.348 68.8264 49.981 72.813C39.614 68.8264 32.6298 58.6989 32.609 47.5824V35.1025L49.981 28.1599L67.3426 35.1025V47.5824Z" fill="#EBF29D"/>
<path id="Vector_4" d="M42.2583 35.0502C41.9877 34.9357 41.6859 34.9357 41.4048 35.0502L37.002 36.8094C36.5752 36.9759 36.3046 37.3818 36.3046 37.8398V42.5341C36.3046 43.1482 36.8042 43.6478 37.4183 43.6478C38.0324 43.6478 38.532 43.1482 38.532 42.5341V38.5996L42.2271 37.1217C42.5081 37.0072 42.7163 36.7989 42.8412 36.5179C42.9557 36.2473 42.9557 35.9455 42.8412 35.6644C42.7267 35.3834 42.5185 35.1751 42.2479 35.0502H42.2583Z" fill="#EBF29D"/>
<path id="Vector_5" d="M78.1258 22.2998C70.6108 14.7743 60.6081 10.6421 49.9705 10.6421C39.3328 10.6421 29.3406 14.7847 21.8151 22.2998C6.29584 37.819 6.29584 63.0808 21.8151 78.6105C29.58 86.3754 39.77 90.2473 49.9705 90.2473C60.1709 90.2473 70.361 86.365 78.1258 78.6105C93.6451 63.0913 93.6451 37.8295 78.1258 22.2998ZM72.6197 47.5823C72.6509 61.7068 63.6266 74.0619 50.1682 78.3399C50.0433 78.3815 49.908 78.3815 49.7727 78.3399C36.3143 74.0619 27.29 61.7068 27.3213 47.5823V31.959C27.3213 31.6987 27.4774 31.4594 27.7272 31.3553L49.7311 22.56C49.8039 22.5288 49.8872 22.5184 49.9705 22.5184C50.0537 22.5184 50.137 22.5288 50.2098 22.56L72.2137 31.3657C72.4635 31.4594 72.6197 31.6987 72.6197 31.9694V47.5927V47.5823Z" fill="#EBF29D"/>
</g>
</g>
</svg>
