<svg width="16" height="16" viewBox="0 0 16 16" fill="none" xmlns="http://www.w3.org/2000/svg">
<g id="Twitter">
<g id="Vector">
<path id="Vector_2" d="M13.3117 5.5386V5.91283C13.3117 9.68139 10.5586 14.0001 5.52072 14.0001C4.03349 14.0034 2.57784 13.5546 1.33333 12.709C1.54946 12.7394 1.76748 12.7532 1.98558 12.7501C3.21838 12.7536 4.41651 12.3266 5.38738 11.5376C4.81465 11.5288 4.25915 11.3328 3.79984 10.9774C3.34052 10.622 3.00075 10.1253 2.82882 9.55789C2.99942 9.59545 3.17335 9.61426 3.34774 9.61402C3.59126 9.61408 3.83368 9.58009 4.06846 9.51298C3.44813 9.38456 2.89005 9.03625 2.48972 8.52766C2.08939 8.01907 1.87169 7.38181 1.87387 6.72493V6.6875C2.2534 6.90767 2.6789 7.02842 3.11351 7.03928C2.53498 6.64393 2.12366 6.03408 1.96359 5.33434C1.80351 4.63461 1.90676 3.8978 2.25225 3.27447C2.94063 4.15374 3.79949 4.87271 4.77298 5.38465C5.74648 5.89658 6.81283 6.19003 7.9027 6.2459C7.84875 6.0335 7.82328 5.81437 7.82702 5.59473C7.80673 5.01426 7.9592 4.4414 8.26367 3.95414C8.56815 3.46689 9.00982 3.08893 9.52857 2.87173C10.0473 2.65452 10.6179 2.60863 11.1627 2.7403C11.7074 2.87196 12.1999 3.17479 12.573 3.60754C13.1862 3.47902 13.7745 3.24502 14.3135 2.91521C14.1091 3.5856 13.6743 4.15442 13.0919 4.51319C13.6359 4.43535 14.1663 4.27654 14.6667 4.04166C14.304 4.62009 13.8452 5.12696 13.3117 5.5386Z" fill="#191D0A"/>
</g>
</g>
</svg>
