<svg width="16" height="16" viewBox="0 0 16 16" fill="none" xmlns="http://www.w3.org/2000/svg">
<g id="YouTube">
<path id="Vector" d="M6.66666 9.99992L10.1267 7.99992L6.66666 5.99992V9.99992ZM14.3733 4.77992C14.46 5.09325 14.52 5.51325 14.56 6.04659C14.6067 6.57992 14.6267 7.03992 14.6267 7.43992L14.6667 7.99992C14.6667 9.45992 14.56 10.5333 14.3733 11.2199C14.2067 11.8199 13.82 12.2066 13.22 12.3733C12.9067 12.4599 12.3333 12.5199 11.4533 12.5599C10.5867 12.6066 9.79333 12.6266 9.06 12.6266L8 12.6666C5.20666 12.6666 3.46666 12.5599 2.77999 12.3733C2.18 12.2066 1.79333 11.8199 1.62666 11.2199C1.53999 10.9066 1.47999 10.4866 1.43999 9.95325C1.39333 9.41992 1.37333 8.95992 1.37333 8.55992L1.33333 7.99992C1.33333 6.53992 1.43999 5.46659 1.62666 4.77992C1.79333 4.17992 2.18 3.79325 2.77999 3.62659C3.09333 3.53992 3.66666 3.47992 4.54666 3.43992C5.41333 3.39325 6.20666 3.37325 6.93999 3.37325L8 3.33325C10.7933 3.33325 12.5333 3.43992 13.22 3.62659C13.82 3.79325 14.2067 4.17992 14.3733 4.77992Z" fill="#311212"/>
</g>
</svg>
